<svg xmlns="http://www.w3.org/2000/svg" xmlns:xlink="http://www.w3.org/1999/xlink" version="1.1" width="1000" height="1000" viewBox="0 0 1000 1000" xml:space="preserve">
<desc>Created with Fabric.js 3.5.0</desc>
<defs>
</defs>
<rect x="0" y="0" width="100%" height="100%" fill="#ffffff"/>
<g transform="matrix(6.5359 0 0 6.595 499.9968 504.5179)" id="742381">
<path style="stroke: none; stroke-width: 0; stroke-dasharray: none; stroke-linecap: butt; stroke-dashoffset: 0; stroke-linejoin: miter; stroke-miterlimit: 4; is-custom-font: none; font-file-url: none; fill: rgb(240,244,248); fill-rule: nonzero; opacity: 1;" vector-effect="non-scaling-stroke" transform=" translate(-79, -78.9999)" d="M 154.685 2.50049 H 154.711 L 154.738 2.49994 C 155.15 2.49126 155.491 2.81853 155.5 3.2304 L 155.5 3.23069 C 155.5 3.24095 155.5 3.25176 155.5 3.26283 L 155.499 3.28886 V 3.3149 V 154.686 C 155.499 155.135 155.135 155.5 154.685 155.5 H 3.31409 C 2.86449 155.5 2.5 155.135 2.5 154.686 V 3.3149 C 2.5 2.86483 2.86465 2.50049 3.31409 2.50049 H 154.685 Z" stroke-linecap="round"/>
</g>
<g transform="matrix(5.8168 0 0 0.9377 497.5 720.2112)" id="963748">
<path style="stroke: none; stroke-width: 0; stroke-dasharray: none; stroke-linecap: butt; stroke-dashoffset: 0; stroke-linejoin: miter; stroke-miterlimit: 4; is-custom-font: none; font-file-url: none; fill: rgb(179,176,78); fill-rule: nonzero; opacity: 1;" vector-effect="non-scaling-stroke" transform=" translate(-79, -78.9999)" d="M 154.685 2.50049 H 154.711 L 154.738 2.49994 C 155.15 2.49126 155.491 2.81853 155.5 3.2304 L 155.5 3.23069 C 155.5 3.24095 155.5 3.25176 155.5 3.26283 L 155.499 3.28886 V 3.3149 V 154.686 C 155.499 155.135 155.135 155.5 154.685 155.5 H 3.31409 C 2.86449 155.5 2.5 155.135 2.5 154.686 V 3.3149 C 2.5 2.86483 2.86465 2.50049 3.31409 2.50049 H 154.685 Z" stroke-linecap="round"/>
</g>
<g transform="matrix(5.8578 0 0 1.5465 502.4098 530.044)" id="332267">
<path style="stroke: none; stroke-width: 0; stroke-dasharray: none; stroke-linecap: butt; stroke-dashoffset: 0; stroke-linejoin: miter; stroke-miterlimit: 4; is-custom-font: none; font-file-url: none; fill: rgb(124,78,179); fill-rule: nonzero; opacity: 1;" vector-effect="non-scaling-stroke" transform=" translate(-79, -78.9999)" d="M 154.685 2.50049 H 154.711 L 154.738 2.49994 C 155.15 2.49126 155.491 2.81853 155.5 3.2304 L 155.5 3.23069 C 155.5 3.24095 155.5 3.25176 155.5 3.26283 L 155.499 3.28886 V 3.3149 V 154.686 C 155.499 155.135 155.135 155.5 154.685 155.5 H 3.31409 C 2.86449 155.5 2.5 155.135 2.5 154.686 V 3.3149 C 2.5 2.86483 2.86465 2.50049 3.31409 2.50049 H 154.685 Z" stroke-linecap="round"/>
</g>
<g transform="matrix(3.9829 0 0 1.3025 485.6526 301.6016)" id="455455">
<path style="stroke: none; stroke-width: 0; stroke-dasharray: none; stroke-linecap: butt; stroke-dashoffset: 0; stroke-linejoin: miter; stroke-miterlimit: 4; is-custom-font: none; font-file-url: none; fill: rgb(179,176,78); fill-rule: nonzero; opacity: 1;" vector-effect="non-scaling-stroke" transform=" translate(-79, -78.9999)" d="M 154.685 2.50049 H 154.711 L 154.738 2.49994 C 155.15 2.49126 155.491 2.81853 155.5 3.2304 L 155.5 3.23069 C 155.5 3.24095 155.5 3.25176 155.5 3.26283 L 155.499 3.28886 V 3.3149 V 154.686 C 155.499 155.135 155.135 155.5 154.685 155.5 H 3.31409 C 2.86449 155.5 2.5 155.135 2.5 154.686 V 3.3149 C 2.5 2.86483 2.86465 2.50049 3.31409 2.50049 H 154.685 Z" stroke-linecap="round"/>
</g>
<g transform="matrix(0.2129 0 0 -0.2129 499.9961 499.9973)" id="293372">
<path style="stroke: none; stroke-width: 1; stroke-dasharray: none; stroke-linecap: butt; stroke-dashoffset: 0; stroke-linejoin: miter; stroke-miterlimit: 4; is-custom-font: none; font-file-url: none; fill: rgb(240,244,248); fill-rule: nonzero; opacity: 1;" transform=" translate(-2135, -1425)" d="M 0 1425 l 0 -1425 l 2135 0 l 2135 0 l 0 1425 l 0 1425 l -2135 0 l -2135 0 l 0 -1425 z m 1918 1271 l 334 -74 l 98 44 c 53 24 105 44 114 44 c 16 0 321 -68 409 -91 l 37 -10 l 0 -67 l 0 -68 l 128 -28 c 193 -43 173 -22 170 -183 l -3 -138 l -1045 0 l -1045 0 l -3 137 l -3 137 l 213 185 c 153 133 220 185 238 186 c 14 0 175 -34 358 -74 z m -1697 -1035 l 29 -29 l 0 -127 c 0 -117 1 -127 18 -120 c 138 59 249 24 303 -97 c 21 -46 24 -68 24 -173 c 0 -111 -2 -124 -27 -171 c -34 -65 -82 -106 -155 -134 c -50 -19 -71 -21 -153 -17 c -52 3 -115 12 -140 19 l -45 14 l -3 432 l -2 432 l 61 0 c 54 0 64 -3 90 -29 z m 3328 12 c 12 -10 26 -36 31 -58 c 5 -22 10 -177 10 -346 c 0 -224 3 -308 12 -317 c 7 -7 25 -12 40 -12 c 22 0 29 -6 35 -27 c 9 -34 10 -100 1 -108 c -3 -3 -46 -7 -96 -8 c -78 -2 -94 1 -119 19 c -63 46 -63 49 -63 482 l 0 392 l 64 0 c 46 0 70 -5 85 -17 z m -338 -19 c 35 -10 40 -113 8 -145 c -18 -18 -30 -21 -90 -17 c -38 2 -74 9 -81 16 c -15 15 -17 117 -1 133 c 25 25 103 31 164 13 z m -1003 -163 l 3 -94 l 69 7 l 68 6 l 7 -40 c 4 -22 4 -53 0 -70 c -7 -30 -7 -30 -76 -30 l -69 0 l 0 -153 c 0 -106 4 -157 12 -165 c 7 -7 33 -12 60 -12 c 45 0 47 -1 53 -33 c 4 -18 5 -49 3 -68 l -3 -34 l -70 -7 c -143 -14 -213 13 -235 90 c -5 20 -10 115 -10 210 l 0 172 l -50 0 l -51 0 l 3 68 l 3 67 l 46 -3 l 47 -3 l 4 70 c 5 101 27 120 133 117 l 50 -1 l 3 -94 z m -1163 -82 c 56 -15 104 -54 126 -103 c 16 -34 19 -66 19 -199 c 0 -125 3 -166 16 -193 c 18 -38 9 -78 -27 -110 c -17 -15 -24 -16 -60 -5 c -22 7 -49 21 -59 31 c -19 19 -20 18 -85 -15 c -77 -40 -128 -45 -190 -16 c -73 34 -105 85 -105 171 c 0 61 10 88 50 133 c 39 45 112 70 202 71 c 67 1 68 1 68 29 c 0 66 -61 82 -185 48 c -78 -22 -76 -23 -102 44 c -24 62 -19 71 50 89 c 136 36 215 43 282 25 z m 1740 -13 c 58 -27 107 -78 126 -133 c 14 -40 18 -175 6 -205 c -6 -16 -23 -18 -162 -18 l -155 0 l 0 -26 c 0 -15 12 -38 29 -55 c 25 -24 38 -29 78 -29 c 27 0 73 7 101 15 c 29 9 56 13 61 10 c 5 -3 17 -25 27 -50 c 21 -55 14 -66 -64 -96 c -83 -33 -219 -33 -285 -1 c -97 48 -140 139 -139 297 c 0 201 95 312 267 314 c 43 1 74 -6 110 -23 z m 1325 3 c 96 -43 140 -118 140 -239 c 0 -128 13 -119 -170 -122 l -158 -3 l 13 -38 c 7 -21 21 -45 32 -52 c 24 -19 107 -19 173 1 c 60 18 61 17 88 -56 c 12 -32 11 -36 -10 -52 c -64 -48 -236 -69 -322 -39 c -55 19 -110 73 -137 134 c -19 43 -23 70 -23 157 c -1 121 16 183 66 244 c 67 81 207 111 308 65 z m -2619 -15 c 23 -25 24 -32 29 -212 c 3 -103 9 -193 13 -199 c 13 -20 71 -15 101 8 l 26 20 l 0 205 l 0 205 l 93 -3 l 92 -3 l 5 -240 c 4 -174 9 -246 18 -263 c 16 -28 3 -69 -29 -98 c -17 -15 -24 -16 -61 -5 c -23 7 -54 26 -70 43 l -27 29 l -43 -28 c -66 -45 -102 -56 -160 -51 c -44 5 -57 11 -89 45 c -21 22 -42 58 -48 79 c -6 22 -11 116 -11 209 c -1 122 -5 181 -15 210 c -8 22 -15 41 -15 42 c -1 13 67 32 111 33 c 47 0 59 -4 80 -26 z m 1699 8 c 65 -32 70 -55 70 -338 l 0 -252 l -22 -6 c -30 -7 -116 -7 -145 0 c -23 6 -23 7 -23 218 c 0 231 -5 256 -56 256 c -23 0 -24 3 -24 64 c 0 74 -2 73 100 75 c 44 1 76 -5 100 -17 z m -2128 -994 l 3 -183 l 98 -3 c 96 -3 97 -3 97 -27 l 0 -25 l -125 0 l -125 0 l 0 210 l 0 210 l 25 0 l 25 0 l 2 -182 z m 708 -28 l 0 -210 l -25 0 l -25 0 l 0 210 l 0 210 l 25 0 l 25 0 l 0 -210 z m 582 40 c 32 -90 61 -166 62 -168 c 2 -1 32 74 67 168 c 61 164 65 170 91 170 c 16 0 28 -3 28 -6 c 0 -3 -36 -97 -81 -210 c -77 -196 -82 -205 -106 -202 c -23 3 -32 21 -104 208 c -44 113 -79 206 -79 208 c 0 2 14 2 31 0 c 31 -3 32 -5 91 -168 z m 978 145 l 0 -25 l -110 0 l -110 0 l 0 -65 l 0 -65 l 100 0 l 100 0 l 0 -25 l 0 -25 l -100 0 l -101 0 l 3 -67 l 3 -68 l 113 -3 c 112 -3 112 -3 112 -27 l 0 -25 l -140 0 l -140 0 l 0 210 l 0 210 l 135 0 l 135 0 l 0 -25 z" stroke-linecap="round"/>
</g>
<g transform="matrix(0.2129 0 0 -0.2129 451.0319 282.0944)" id="187974">
<path style="stroke: none; stroke-width: 1; stroke-dasharray: none; stroke-linecap: butt; stroke-dashoffset: 0; stroke-linejoin: miter; stroke-miterlimit: 4; is-custom-font: none; font-file-url: none; fill: rgb(240,244,248); fill-rule: nonzero; opacity: 1;" transform=" translate(-1905, -2448.5)" d="M 1570 2448 l 0 -298 l 335 0 l 335 0 l 0 223 l 0 224 l -77 16 c -43 10 -194 43 -335 75 l -258 59 l 0 -299 z" stroke-linecap="round"/>
</g>
<g transform="matrix(0.2129 0 0 -0.2129 331.8071 284.9687)" id="880700">
<path style="stroke: none; stroke-width: 1; stroke-dasharray: none; stroke-linecap: butt; stroke-dashoffset: 0; stroke-linejoin: miter; stroke-miterlimit: 4; is-custom-font: none; font-file-url: none; fill: rgb(240,244,248); fill-rule: nonzero; opacity: 1;" transform=" translate(-1345, -2435)" d="M 1337 2558 l -187 -162 l 0 -123 l 0 -123 l 195 0 l 195 0 l 0 285 c 0 157 -3 285 -8 285 c -4 0 -92 -73 -195 -162 z" stroke-linecap="round"/>
</g>
<g transform="matrix(0.2129 0 0 -0.2129 547.9028 290.397)" id="59662">
<path style="stroke: none; stroke-width: 1; stroke-dasharray: none; stroke-linecap: butt; stroke-dashoffset: 0; stroke-linejoin: miter; stroke-miterlimit: 4; is-custom-font: none; font-file-url: none; fill: rgb(240,244,248); fill-rule: nonzero; opacity: 1;" transform=" translate(-2360, -2409.5032)" d="M 2353 2633 l -83 -36 l 0 -223 l 0 -224 l 90 0 l 90 0 l 0 260 c 0 143 -3 260 -7 259 c -5 -1 -45 -17 -90 -36 z" stroke-linecap="round"/>
</g>
<g transform="matrix(0.2129 0 0 -0.2135 616.0312 290.4475)" id="839643">
<path style="stroke: none; stroke-width: 1; stroke-dasharray: none; stroke-linecap: butt; stroke-dashoffset: 0; stroke-linejoin: miter; stroke-miterlimit: 4; is-custom-font: none; font-file-url: none; fill: rgb(240,244,248); fill-rule: nonzero; opacity: 1;" transform=" translate(-2680, -2410)" d="M 2480 2410 l 0 -260 l 200 0 l 200 0 l -2 217 l -3 217 l -180 43 c -99 23 -188 43 -197 43 c -17 0 -18 -19 -18 -260 z" stroke-linecap="round"/>
</g>
<g transform="matrix(0.2129 0 0 -0.2129 692.676 314.5623)" id="285218">
<path style="stroke: none; stroke-width: 1; stroke-dasharray: none; stroke-linecap: butt; stroke-dashoffset: 0; stroke-linejoin: miter; stroke-miterlimit: 4; is-custom-font: none; font-file-url: none; fill: rgb(240,244,248); fill-rule: nonzero; opacity: 1;" transform=" translate(-3040, -2296)" d="M 2910 2296 l 0 -146 l 130 0 l 130 0 l 0 118 l 0 119 l -107 22 c -60 12 -118 25 -130 28 l -23 5 l 0 -146 z" stroke-linecap="round"/>
</g>
<g transform="matrix(0.2129 0 0 -0.2129 115.6964 570.3502)" id="737254">
<path style="stroke: none; stroke-width: 1; stroke-dasharray: none; stroke-linecap: butt; stroke-dashoffset: 0; stroke-linejoin: miter; stroke-miterlimit: 4; is-custom-font: none; font-file-url: none; fill: rgb(240,244,248); fill-rule: nonzero; opacity: 1;" transform=" translate(-329.9265, -1094.5637)" d="M 272 1244 c -21 -14 -22 -21 -22 -165 l 0 -149 l 48 0 c 57 0 84 23 101 85 c 22 79 9 196 -25 230 c -20 19 -73 19 -102 -1 z" stroke-linecap="round"/>
</g>
<g transform="matrix(0.2129 0 0 -0.2129 243.4915 593.5702)" id="199800">
<path style="stroke: none; stroke-width: 1; stroke-dasharray: none; stroke-linecap: butt; stroke-dashoffset: 0; stroke-linejoin: miter; stroke-miterlimit: 4; is-custom-font: none; font-file-url: none; fill: rgb(240,244,248); fill-rule: nonzero; opacity: 1;" transform=" translate(-930.1798, -985.5)" d="M 880 1030 c -27 -27 -26 -75 2 -94 c 28 -20 42 -20 84 0 c 32 15 34 19 34 65 l 0 49 l -50 0 c -37 0 -55 -5 -70 -20 z" stroke-linecap="round"/>
</g>
<g transform="matrix(0.2129 0 0 -0.2129 614.9669 542.048)" id="133599">
<path style="stroke: none; stroke-width: 1; stroke-dasharray: none; stroke-linecap: butt; stroke-dashoffset: 0; stroke-linejoin: miter; stroke-miterlimit: 4; is-custom-font: none; font-file-url: none; fill: rgb(240,244,248); fill-rule: nonzero; opacity: 1;" transform=" translate(-2675, -1227.5)" d="M 2650 1281 c -28 -8 -50 -43 -50 -83 l 0 -28 l 75 0 c 74 0 75 0 75 25 c 0 29 -26 85 -39 85 c -5 0 -15 2 -23 4 c -7 2 -24 1 -38 -3 z" stroke-linecap="round"/>
</g>
<g transform="matrix(0.2129 0 0 -0.2129 897.417 542.0312)" id="312062">
<path style="stroke: none; stroke-width: 1; stroke-dasharray: none; stroke-linecap: butt; stroke-dashoffset: 0; stroke-linejoin: miter; stroke-miterlimit: 4; is-custom-font: none; font-file-url: none; fill: rgb(240,244,248); fill-rule: nonzero; opacity: 1;" transform=" translate(-4001.6681, -1227.5792)" d="M 3970 1277 c -25 -13 -56 -80 -44 -98 c 3 -5 39 -9 80 -9 l 74 0 l 0 29 c 0 33 -33 76 -65 85 c -11 3 -31 0 -45 -7 z" stroke-linecap="round"/>
</g>
</svg>